# xmcd
#
# Track frame offsets: 
#        150
#        2692
#        20238
#        37672
#        56822
#        72541
#        89255
#        107068
#        122911
#        140891
#        159999
#        178920
#        196256
#        214765
#        233649
#        253523
#
# Disc length: 3576 seconds
#
# Revision: 0
# Processed by: cddbd v1.5.2PL0 Copyright (c) Steve Scherf et al.
# Submitted via: ExactAudioCopyFreeDBPlugin 1.0
#
DISCID=e30df610
DTITLE=Je Ne Changerai Pas - Naëlle's
DYEAR=2011
DGENRE=World
TTITLE0=Intro
TTITLE1=Pour Toi
TTITLE2=Pa Laché
TTITLE3=Je Serai Là
TTITLE4=Koz Ek Moin
TTITLE5=Si Tu Partais
TTITLE6=Fo Nou Kimbé
TTITLE7=Je Ne Changerai Pas
TTITLE8=A Jamais
TTITLE9=A Coeur Ouvert
TTITLE10=Apprends-Moi
TTITLE11=J'avance Sans Toi
TTITLE12=Rude Bwoy Love
TTITLE13=Recommencer
TTITLE14=Si On S'envolait
TTITLE15=Je Serai Là (Sampling Version)
EXTD=
EXTT0=
EXTT1=
EXTT2=
EXTT3=
EXTT4=
EXTT5=
EXTT6=
EXTT7=
EXTT8=
EXTT9=
EXTT10=
EXTT11=
EXTT12=
EXTT13=
EXTT14=
EXTT15=
PLAYORDER=
